<svg width="24" height="24" viewBox="0 0 24 24" fill="none" xmlns="http://www.w3.org/2000/svg">
<path d="M17.2341 2.25007H6.74409C6.14961 2.24954 5.56091 2.36679 5.012 2.59507C4.4631 2.82336 3.96487 3.15814 3.54609 3.58007C3.12894 4.00066 2.79955 4.49997 2.57706 5.04898C2.35457 5.59798 2.24343 6.18574 2.25009 6.77807V17.2221C2.24287 17.8145 2.35376 18.4024 2.57628 18.9515C2.7988 19.5006 3.12848 19.9998 3.54609 20.4201C3.96475 20.8419 4.46282 21.1766 5.01154 21.4049C5.56027 21.6332 6.14877 21.7505 6.74309 21.7501H11.5061V14.7841H9.68609C9.57342 14.7833 9.46557 14.7383 9.38572 14.6589C9.30586 14.5794 9.26039 14.4717 9.25909 14.3591V12.1231C9.25895 12.0656 9.27021 12.0087 9.2922 11.9556C9.31418 11.9025 9.34647 11.8543 9.3872 11.8138C9.42792 11.7732 9.47628 11.7412 9.52947 11.7194C9.58266 11.6977 9.63963 11.6867 9.69709 11.6871H11.5061V9.50707C11.4554 8.99185 11.5183 8.47177 11.6903 7.9835C11.8624 7.49522 12.1395 7.05064 12.5021 6.68108C12.865 6.30984 13.3045 6.02223 13.79 5.83829C14.2755 5.65436 14.7953 5.57852 15.3131 5.61608H17.1671C17.2238 5.61647 17.2799 5.62807 17.3321 5.65024C17.3843 5.6724 17.4316 5.70467 17.4713 5.7452C17.511 5.78572 17.5423 5.8337 17.5634 5.88637C17.5844 5.93904 17.5949 5.99536 17.5941 6.05207V7.94207C17.5941 7.99801 17.583 8.05339 17.5615 8.10503C17.54 8.15667 17.5085 8.20354 17.4688 8.24295C17.4292 8.28237 17.3821 8.31353 17.3303 8.33466C17.2785 8.3558 17.223 8.36647 17.1671 8.36608H16.0441C14.8081 8.36608 14.5721 8.94807 14.5721 9.79707V11.6761H17.2681C17.3289 11.6758 17.389 11.6884 17.4445 11.7132C17.5 11.7379 17.5496 11.7742 17.59 11.8196C17.6304 11.865 17.6607 11.9185 17.6788 11.9765C17.6969 12.0345 17.7025 12.0957 17.6951 12.1561L17.4251 14.3931C17.4141 14.4983 17.3642 14.5955 17.2852 14.6658C17.2062 14.7361 17.1038 14.7744 16.9981 14.7731H14.5831V21.7391H17.2571C17.8514 21.7395 18.4399 21.6222 18.9886 21.3939C19.5374 21.1656 20.0354 20.8309 20.4541 20.4091C20.8714 19.9884 21.2008 19.4889 21.4233 18.9397C21.6458 18.3905 21.7569 17.8026 21.7501 17.2101V6.77807C21.7579 6.18368 21.6465 5.59375 21.4225 5.04311C21.1986 4.49246 20.8666 3.99228 20.4461 3.57208C20.025 3.1499 19.5242 2.81563 18.9728 2.58868C18.4214 2.36173 17.8304 2.24663 17.2341 2.25007Z" fill="#181818"/>
</svg>
