<svg width="24" height="24" viewBox="0 0 24 24" fill="none" xmlns="http://www.w3.org/2000/svg">
<path d="M13.8231 12.234C13.8071 12.584 13.6931 12.922 13.4921 13.209C13.2904 13.5054 13.0003 13.7304 12.6631 13.852C12.3292 13.9879 11.9618 14.0186 11.6101 13.94C11.2566 13.8648 10.9339 13.685 10.6841 13.424C10.4367 13.1509 10.2741 12.8118 10.2161 12.448C10.1512 12.0955 10.1955 11.7316 10.3431 11.405C10.4871 11.078 10.7231 10.799 11.0251 10.605C11.3321 10.415 11.6871 10.314 12.0491 10.313C12.5261 10.339 12.9751 10.545 13.3071 10.888C13.4788 11.0664 13.6129 11.2775 13.7016 11.5087C13.7902 11.7399 13.8315 11.9865 13.8231 12.234Z" fill="#181818"/>
<path d="M17.265 8.0021C17.1513 7.721 16.9823 7.46564 16.7679 7.25124C16.5535 7.03683 16.2981 6.86777 16.017 6.7541C15.7338 6.64442 15.4336 6.58519 15.13 6.5791H8.96799C8.35846 6.58147 7.77457 6.82466 7.34356 7.25567C6.91255 7.68668 6.66936 8.27057 6.66699 8.8801V15.1591C6.66787 15.462 6.72857 15.7617 6.84561 16.0411C6.96264 16.3205 7.13371 16.574 7.34899 16.7871C7.77985 17.2146 8.36107 17.4562 8.96799 17.4601H15.13C15.5839 17.4572 16.0269 17.3212 16.4043 17.069C16.7816 16.8167 17.0767 16.4594 17.253 16.0411C17.3698 15.7617 17.4303 15.462 17.431 15.1591V8.8891C17.4278 8.58602 17.3716 8.28583 17.265 8.0021ZM14.828 13.4431C14.6817 13.8084 14.4626 14.1402 14.184 14.4181C13.904 14.7011 13.573 14.9281 13.209 15.0911C12.8147 15.2565 12.3907 15.3393 11.9631 15.3345C11.5355 15.3297 11.1135 15.2373 10.723 15.0631C10.0949 14.7803 9.57969 14.2952 9.25974 13.6852C8.93979 13.0752 8.83355 12.3756 8.95799 11.6981C9.07715 11.0999 9.36478 10.5483 9.78699 10.1081C10.217 9.67715 10.764 9.38187 11.3602 9.25886C11.9564 9.13585 12.5756 9.19053 13.141 9.4161C13.708 9.6461 14.191 10.0441 14.525 10.5571C14.8625 11.0517 15.0459 11.6353 15.052 12.2341C15.066 12.6491 14.989 13.0611 14.828 13.4431ZM15.9 8.6261C15.9094 8.70403 15.9022 8.78307 15.8788 8.85801C15.8554 8.93294 15.8164 9.00205 15.7643 9.06079C15.7122 9.11953 15.6483 9.16655 15.5767 9.19876C15.5051 9.23096 15.4275 9.24761 15.349 9.24761C15.2705 9.24761 15.1929 9.23096 15.1213 9.19876C15.0497 9.16655 14.9858 9.11953 14.9337 9.06079C14.8816 9.00205 14.8426 8.93294 14.8192 8.85801C14.7958 8.78307 14.7886 8.70403 14.798 8.6261C14.7863 8.54693 14.7918 8.46615 14.8141 8.38929C14.8364 8.31242 14.875 8.24127 14.9273 8.18068C14.9796 8.12008 15.0443 8.07146 15.1171 8.03814C15.1899 8.00482 15.269 7.98757 15.349 7.98757C15.429 7.98757 15.5081 8.00482 15.5809 8.03814C15.6537 8.07146 15.7184 8.12008 15.7707 8.18068C15.823 8.24127 15.8616 8.31242 15.8839 8.38929C15.9062 8.46615 15.9117 8.54693 15.9 8.6261Z" fill="#181818"/>
<path d="M16.875 2.25H7.125C5.83207 2.25 4.59209 2.76361 3.67785 3.67785C2.76361 4.59209 2.25 5.83207 2.25 7.125V16.875C2.25 17.5152 2.3761 18.1491 2.62109 18.7406C2.86608 19.332 3.22517 19.8695 3.67785 20.3221C4.59209 21.2364 5.83207 21.75 7.125 21.75H16.875C17.5152 21.75 18.1491 21.6239 18.7406 21.3789C19.332 21.1339 19.8695 20.7748 20.3221 20.3221C20.7748 19.8695 21.1339 19.332 21.3789 18.7406C21.6239 18.1491 21.75 17.5152 21.75 16.875V7.125C21.75 6.48481 21.6239 5.85088 21.3789 5.25942C21.1339 4.66796 20.7748 4.13054 20.3221 3.67785C19.8695 3.22517 19.332 2.86608 18.7406 2.62109C18.1491 2.3761 17.5152 2.25 16.875 2.25ZM18.942 15.062C18.952 15.572 18.855 16.081 18.659 16.553C18.2634 17.5003 17.5103 18.2534 16.563 18.649C16.09 18.845 15.583 18.941 15.071 18.932H9.075C8.56376 18.9393 8.0563 18.8434 7.583 18.65C7.11414 18.4529 6.68718 18.1681 6.325 17.811C5.9663 17.4503 5.68162 17.023 5.487 16.553C5.28057 16.0827 5.17432 15.5746 5.175 15.061V9.018C5.16799 8.50669 5.26424 7.99923 5.458 7.526C5.84476 6.57473 6.59109 5.81439 7.535 5.41C8.02534 5.21936 8.54918 5.1299 9.075 5.147H15.12C15.6268 5.14235 16.1294 5.23913 16.5983 5.43165C17.0671 5.62417 17.4927 5.90853 17.85 6.268C18.207 6.63 18.491 7.058 18.688 7.526C18.883 7.999 18.98 8.506 18.971 9.018L18.942 15.062Z" fill="#181818"/>
</svg>
